<?xml version="1.0" encoding="utf-8"?>
<!-- Generator: Adobe Illustrator 16.0.0, SVG Export Plug-In . SVG Version: 6.00 Build 0)  -->
<!DOCTYPE svg PUBLIC "-//W3C//DTD SVG 1.1 Basic//EN" "http://www.w3.org/Graphics/SVG/1.1/DTD/svg11-basic.dtd" [
	<!ENTITY ns_extend "http://ns.adobe.com/Extensibility/1.0/">
	<!ENTITY ns_ai "http://ns.adobe.com/AdobeIllustrator/10.0/">
	<!ENTITY ns_graphs "http://ns.adobe.com/Graphs/1.0/">
	<!ENTITY ns_vars "http://ns.adobe.com/Variables/1.0/">
	<!ENTITY ns_imrep "http://ns.adobe.com/ImageReplacement/1.0/">
	<!ENTITY ns_sfw "http://ns.adobe.com/SaveForWeb/1.0/">
	<!ENTITY ns_custom "http://ns.adobe.com/GenericCustomNamespace/1.0/">
	<!ENTITY ns_adobe_xpath "http://ns.adobe.com/XPath/1.0/">
]>
<svg version="1.1" baseProfile="basic" id="Layer_1" xmlns:x="&ns_extend;" xmlns:i="&ns_ai;" xmlns:graph="&ns_graphs;"
	 xmlns="http://www.w3.org/2000/svg" xmlns:xlink="http://www.w3.org/1999/xlink" x="0px" y="0px" width="30px" height="30px"
	 viewBox="0 0 30 30" xml:space="preserve">
<path d="M14.959,0C6.697,0,0,6.697,0,14.959c0,8.261,6.697,14.959,14.959,14.959c8.261,0,14.958-6.698,14.958-14.959
	C29.918,6.697,23.221,0,14.959,0z M14.959,27.988c-7.196,0-13.029-5.834-13.029-13.029c0-7.196,5.833-13.029,13.029-13.029
	c7.195,0,13.029,5.833,13.029,13.029C27.988,22.154,22.154,27.988,14.959,27.988z"/>
<path d="M15.102,11.275c1.045,0,1.99,0.428,2.67,1.118h4.664V10.49h0.001c0-1.601-1.298-2.897-2.898-2.897H11.62v3.653h-0.593V7.592
	h-0.344c-0.023,0-0.044,0.001-0.067,0.001v3.652h-0.594V7.669C9.877,7.702,9.738,7.746,9.604,7.801v3.445H9.009V8.125
	C8.269,8.65,7.785,9.513,7.785,10.49v1.903h4.646C13.111,11.703,14.056,11.275,15.102,11.275z M18.617,9.268
	c0-0.256,0.207-0.464,0.464-0.464h1.566c0.257,0,0.466,0.208,0.466,0.464v1.602c0,0.257-0.209,0.464-0.466,0.464h-1.566
	c-0.257,0-0.464-0.208-0.464-0.464V9.268z"/>
<path d="M17.004,12.853c-0.213-0.186-0.451-0.341-0.711-0.459c-0.362-0.166-0.767-0.258-1.191-0.258
	c-0.425,0-0.828,0.092-1.192,0.258c-0.259,0.119-0.499,0.273-0.71,0.459c-0.604,0.529-0.987,1.307-0.987,2.171
	c0,1.592,1.296,2.887,2.889,2.887c1.592,0,2.889-1.295,2.889-2.887C17.991,14.159,17.608,13.382,17.004,12.853z M15.112,17.157
	c-1.179,0-2.136-0.955-2.136-2.133c0-1.18,0.957-2.135,2.136-2.135c1.178,0,2.134,0.956,2.134,2.135
	C17.246,16.202,16.29,17.157,15.112,17.157z"/>
<path d="M10.683,22.321h8.856c1.601,0,2.898-1.298,2.898-2.898v-6.57h-4.28c0.436,0.612,0.694,1.361,0.694,2.171
	c0,2.07-1.679,3.749-3.75,3.749s-3.75-1.679-3.75-3.749c0-0.81,0.257-1.559,0.694-2.171H7.785v6.57
	C7.785,21.023,9.083,22.321,10.683,22.321z"/>
</svg>
