<?xml version="1.0" encoding="utf-8"?>
<!-- Generator: Adobe Illustrator 16.0.0, SVG Export Plug-In . SVG Version: 6.00 Build 0)  -->
<!DOCTYPE svg PUBLIC "-//W3C//DTD SVG 1.1 Basic//EN" "http://www.w3.org/Graphics/SVG/1.1/DTD/svg11-basic.dtd" [
	<!ENTITY ns_extend "http://ns.adobe.com/Extensibility/1.0/">
	<!ENTITY ns_ai "http://ns.adobe.com/AdobeIllustrator/10.0/">
	<!ENTITY ns_graphs "http://ns.adobe.com/Graphs/1.0/">
	<!ENTITY ns_vars "http://ns.adobe.com/Variables/1.0/">
	<!ENTITY ns_imrep "http://ns.adobe.com/ImageReplacement/1.0/">
	<!ENTITY ns_sfw "http://ns.adobe.com/SaveForWeb/1.0/">
	<!ENTITY ns_custom "http://ns.adobe.com/GenericCustomNamespace/1.0/">
	<!ENTITY ns_adobe_xpath "http://ns.adobe.com/XPath/1.0/">
]>
<svg version="1.1" baseProfile="basic" id="Layer_1" xmlns:x="&ns_extend;" xmlns:i="&ns_ai;" xmlns:graph="&ns_graphs;"
	 xmlns="http://www.w3.org/2000/svg" xmlns:xlink="http://www.w3.org/1999/xlink" x="0px" y="0px" width="30px" height="30px"
	 viewBox="0 0 30 30" xml:space="preserve">
<path d="M15,0C6.716,0,0,6.716,0,15.001c0,8.285,6.716,15,15,15s15.001-6.715,15.001-15C30.002,6.716,23.285,0,15,0z M15,28.066
	c-7.216,0-13.065-5.851-13.065-13.065C1.936,7.785,7.785,1.936,15,1.936c7.215,0,13.065,5.849,13.065,13.066
	C28.065,22.216,22.216,28.066,15,28.066z"/>
<path d="M20.289,9.139c-2.179-0.07-3.654,1.16-4.427,3.691c0.399-0.171,0.788-0.257,1.164-0.257c0.8,0,1.152,0.45,1.058,1.348
	c-0.046,0.542-0.399,1.333-1.058,2.375c-0.659,1.04-1.153,1.56-1.482,1.56c-0.424,0-0.813-0.801-1.166-2.403
	c-0.119-0.47-0.33-1.673-0.634-3.604c-0.284-1.792-1.036-2.628-2.26-2.511c-0.518,0.048-1.295,0.519-2.33,1.413
	C8.4,11.432,7.635,12.115,6.86,12.796L7.6,13.75c0.704-0.493,1.116-0.741,1.233-0.741c0.541,0,1.044,0.847,1.515,2.539
	c0.423,1.552,0.846,3.103,1.27,4.655c0.633,1.693,1.409,2.538,2.325,2.538c1.479,0,3.288-1.389,5.424-4.168
	c2.068-2.662,3.137-4.757,3.207-6.289C22.667,10.235,21.905,9.188,20.289,9.139z"/>
</svg>
