<?xml version="1.0" encoding="utf-8"?>
<!-- Generator: Adobe Illustrator 16.0.0, SVG Export Plug-In . SVG Version: 6.00 Build 0)  -->
<!DOCTYPE svg PUBLIC "-//W3C//DTD SVG 1.1 Basic//EN" "http://www.w3.org/Graphics/SVG/1.1/DTD/svg11-basic.dtd" [
	<!ENTITY ns_extend "http://ns.adobe.com/Extensibility/1.0/">
	<!ENTITY ns_ai "http://ns.adobe.com/AdobeIllustrator/10.0/">
	<!ENTITY ns_graphs "http://ns.adobe.com/Graphs/1.0/">
	<!ENTITY ns_vars "http://ns.adobe.com/Variables/1.0/">
	<!ENTITY ns_imrep "http://ns.adobe.com/ImageReplacement/1.0/">
	<!ENTITY ns_sfw "http://ns.adobe.com/SaveForWeb/1.0/">
	<!ENTITY ns_custom "http://ns.adobe.com/GenericCustomNamespace/1.0/">
	<!ENTITY ns_adobe_xpath "http://ns.adobe.com/XPath/1.0/">
]>
<svg version="1.1" baseProfile="basic" id="Layer_1" xmlns:x="&ns_extend;" xmlns:i="&ns_ai;" xmlns:graph="&ns_graphs;"
	 xmlns="http://www.w3.org/2000/svg" xmlns:xlink="http://www.w3.org/1999/xlink" x="0px" y="0px" width="30px" height="30px"
	 viewBox="0 0 30 30" xml:space="preserve">
<path d="M15,0C6.715,0,0,6.715,0,15c0,8.284,6.716,15,15,15c8.284,0,15.001-6.716,15.001-15C30.001,6.715,23.284,0,15,0z M15,28.064
	C7.784,28.064,1.935,22.216,1.935,15S7.784,1.935,15,1.935c7.215,0,13.064,5.849,13.064,13.065S22.215,28.064,15,28.064z"/>
<path d="M17.156,13.035c0.265,0,0.633-0.137,1.012-0.588v0.521h0.876V8.255h-0.876v3.576c-0.106,0.134-0.344,0.353-0.514,0.353
	c-0.189,0-0.234-0.128-0.234-0.317V8.255h-0.876v3.938C16.544,12.658,16.687,13.035,17.156,13.035z"/>
<path d="M13.258,11.792c0,0.83,0.435,1.263,1.284,1.263c0.704,0,1.258-0.471,1.258-1.263V9.483c0-0.738-0.548-1.266-1.258-1.266
	c-0.772,0-1.284,0.51-1.284,1.266V11.792z M14.159,9.56c0-0.258,0.119-0.45,0.365-0.45c0.27,0,0.384,0.186,0.384,0.45v2.192
	c0,0.256-0.131,0.445-0.366,0.445c-0.242,0-0.382-0.197-0.382-0.445V9.56z"/>
<polygon points="11.168,12.967 12.155,12.967 12.155,10.376 13.302,6.58 12.301,6.58 11.668,9.132 10.988,6.58 9.995,6.58
	11.168,10.376 "/>
<path d="M20.224,14.038H9.899c-1.109,0-2.008,0.9-2.008,2.01v5.073c0,1.109,0.898,2.008,2.008,2.008h10.324
	c1.108,0,2.008-0.898,2.008-2.008v-5.073C22.231,14.938,21.332,14.038,20.224,14.038z M11.275,21.625h-0.939v-5.198H9.364v-0.883
	h2.883v0.883h-0.972V21.625z M14.616,21.625h-0.833v-0.494c-0.154,0.182-0.314,0.32-0.48,0.417c-0.45,0.257-1.066,0.252-1.066-0.659
	V17.14h0.834v3.438c0,0.182,0.044,0.303,0.222,0.303c0.162,0,0.389-0.207,0.491-0.336V17.14h0.833V21.625z M17.828,20.695
	c0,0.556-0.209,0.987-0.764,0.987c-0.305,0-0.56-0.112-0.792-0.402v0.345H15.43v-6.082h0.842v1.958
	c0.188-0.229,0.444-0.419,0.741-0.419c0.611,0,0.814,0.517,0.814,1.125V20.695z M20.91,19.488h-1.595v0.847
	c0,0.336,0.028,0.626,0.365,0.626c0.352,0,0.372-0.236,0.372-0.626v-0.313h0.857v0.338c0,0.864-0.371,1.388-1.25,1.388
	c-0.797,0-1.204-0.581-1.204-1.388v-2.014c0-0.78,0.515-1.319,1.268-1.319c0.801,0,1.187,0.508,1.187,1.319V19.488z"/>
<path d="M19.688,17.812c-0.309,0-0.373,0.217-0.373,0.525v0.454h0.737v-0.454C20.053,18.033,19.987,17.812,19.688,17.812z"/>
<path d="M16.444,17.84c-0.059,0.028-0.116,0.074-0.172,0.137v2.795c0.068,0.073,0.134,0.125,0.197,0.158
	c0.136,0.068,0.335,0.075,0.427-0.047c0.048-0.063,0.073-0.165,0.073-0.309v-2.316c0-0.151-0.031-0.267-0.09-0.346
	C16.778,17.779,16.59,17.765,16.444,17.84z"/>
</svg>
